<svg xmlns="http://www.w3.org/2000/svg" width="640" height="400" viewBox="0 0 640 400" fill="none">
  <rect width="640" height="400" fill="#131313"/>
  <rect x="24" y="24" width="592" height="56" rx="4" fill="#1c1b1b" stroke="#353534"/>
  <circle cx="52" cy="52" r="12" fill="#41ef7a" opacity="0.7"/>
  <rect x="76" y="44" width="100" height="16" rx="2" fill="#353534"/>
  <rect x="480" y="40" width="120" height="24" rx="4" fill="#41ef7a" opacity="0.2" stroke="#41ef7a"/>
  <rect x="24" y="96" width="592" height="48" rx="4" fill="#1c1b1b" stroke="#353534"/>
  <rect x="40" y="112" width="60" height="16" rx="2" fill="#41ef7a" opacity="0.5"/>
  <rect x="120" y="112" width="60" height="16" rx="2" fill="#353534"/>
  <rect x="200" y="112" width="60" height="16" rx="2" fill="#353534"/>
  <rect x="280" y="112" width="60" height="16" rx="2" fill="#353534"/>
  <rect x="24" y="160" width="592" height="216" rx="4" fill="#1c1b1b" stroke="#353534"/>
  <rect x="40" y="176" width="80" height="12" rx="2" fill="#353534"/>
  <rect x="40" y="200" width="560" height="1" fill="#353534"/>
  <rect x="40" y="216" width="120" height="12" rx="2" fill="#e5e2e1" opacity="0.6"/>
  <rect x="200" y="216" width="80" height="12" rx="2" fill="#353534"/>
  <rect x="320" y="216" width="100" height="12" rx="2" fill="#41ef7a" opacity="0.4"/>
  <rect x="480" y="216" width="60" height="12" rx="2" fill="#353534"/>
  <rect x="40" y="248" width="120" height="12" rx="2" fill="#e5e2e1" opacity="0.4"/>
  <rect x="200" y="248" width="80" height="12" rx="2" fill="#353534"/>
  <rect x="320" y="248" width="100" height="12" rx="2" fill="#353534"/>
  <rect x="480" y="248" width="60" height="12" rx="2" fill="#353534"/>
  <rect x="40" y="280" width="120" height="12" rx="2" fill="#e5e2e1" opacity="0.4"/>
  <rect x="200" y="280" width="80" height="12" rx="2" fill="#353534"/>
  <rect x="320" y="280" width="100" height="12" rx="2" fill="#353534"/>
  <rect x="40" y="312" width="120" height="12" rx="2" fill="#e5e2e1" opacity="0.3"/>
  <rect x="200" y="312" width="80" height="12" rx="2" fill="#353534"/>
</svg>
