<svg xmlns="http://www.w3.org/2000/svg" width="640" height="400" viewBox="0 0 640 400" fill="none">
  <rect width="640" height="400" fill="#131313"/>
  <rect x="24" y="24" width="592" height="48" rx="4" fill="#1c1b1b" stroke="#353534"/>
  <rect x="40" y="40" width="80" height="16" rx="2" fill="#41ef7a" opacity="0.8"/>
  <rect x="140" y="40" width="60" height="16" rx="2" fill="#353534"/>
  <rect x="220" y="40" width="60" height="16" rx="2" fill="#353534"/>
  <rect x="24" y="88" width="180" height="288" rx="4" fill="#1c1b1b" stroke="#353534"/>
  <rect x="40" y="108" width="120" height="12" rx="2" fill="#353534"/>
  <rect x="40" y="132" width="148" height="8" rx="2" fill="#2a2a2a"/>
  <rect x="40" y="148" width="130" height="8" rx="2" fill="#2a2a2a"/>
  <rect x="40" y="180" width="148" height="40" rx="2" fill="#41ef7a" opacity="0.15" stroke="#41ef7a" stroke-width="1"/>
  <rect x="40" y="232" width="148" height="40" rx="2" fill="#2a2a2a"/>
  <rect x="40" y="284" width="148" height="40" rx="2" fill="#2a2a2a"/>
  <rect x="220" y="88" width="396" height="120" rx="4" fill="#1c1b1b" stroke="#353534"/>
  <rect x="236" y="108" width="100" height="12" rx="2" fill="#41ef7a" opacity="0.6"/>
  <rect x="236" y="132" width="364" height="60" rx="2" fill="#2a2a2a"/>
  <rect x="220" y="224" width="190" height="152" rx="4" fill="#1c1b1b" stroke="#353534"/>
  <rect x="236" y="244" width="80" height="10" rx="2" fill="#353534"/>
  <rect x="236" y="264" width="158" height="96" rx="2" fill="#41ef7a" opacity="0.1"/>
  <rect x="426" y="224" width="190" height="152" rx="4" fill="#1c1b1b" stroke="#353534"/>
  <rect x="442" y="244" width="80" height="10" rx="2" fill="#353534"/>
  <rect x="442" y="264" width="158" height="96" rx="2" fill="#2a2a2a"/>
</svg>
